# xmcd
#
# Track frame offsets:
#	150
#	22838
#	40100
#	62083
#	80128
#	108823
#	130278
#	157465
#	179833
#	208900
#	223035
#
# Disc length: 3290 seconds
#
# Revision: 6
# Processed by: cddbd v1.5.2PL0 Copyright (c) Steve Scherf et al.
# Submitted via: audiograbber 1.83.01
#
DISCID=a50cd80b
DTITLE=Jimmie Vaughan - Do You Get The Blues?
DYEAR=2001
DGENRE=Blues
TTITLE0=Dirty Girl
TTITLE1=Out Of The Shadows
TTITLE2=The Deep End
TTITLE3=Power Of Love
TTITLE4=Without You
TTITLE5=Let Me In
TTITLE6=Don't Let The Sun Set
TTITLE7=Robbin' Me Blind
TTITLE8=Slow Dance Blues
TTITLE9=In The Middle Of The Night
TTITLE10=Planet Bongo
EXTD=YEAR: 2001
EXTT0=
EXTT1=
EXTT2=
EXTT3=
EXTT4=
EXTT5=
EXTT6=
EXTT7=
EXTT8=
EXTT9=
EXTT10=
PLAYORDER=
